<svg width="144.000000" height="172.000000" viewBox="0 0 144 172" fill="none" xmlns="http://www.w3.org/2000/svg" xmlns:xlink="http://www.w3.org/1999/xlink">
	<desc>
			Created with Pixso.
	</desc>
	<defs>
		<filter id="filter_1_235_dd" x="10.875488" y="47.704102" width="110.256226" height="110.606293" filterUnits="userSpaceOnUse" color-interpolation-filters="sRGB">
			<feFlood flood-opacity="0" result="BackgroundImageFix"/>
			<feColorMatrix in="SourceAlpha" type="matrix" values="0 0 0 0 0 0 0 0 0 0 0 0 0 0 0 0 0 0 127 0" result="hardAlpha"/>
			<feOffset dx="0" dy="4"/>
			<feGaussianBlur stdDeviation="4.66667"/>
			<feComposite in2="hardAlpha" operator="out" k2="-1" k3="1"/>
			<feColorMatrix type="matrix" values="0 0 0 0 0.46667 0 0 0 0 0.23922 0 0 0 0 0.16863 0 0 0 0.25 0"/>
			<feBlend mode="normal" in2="BackgroundImageFix" result="effect_dropShadow_1"/>
			<feBlend mode="normal" in="SourceGraphic" in2="effect_dropShadow_1" result="shape"/>
		</filter>
		<radialGradient id="paint_radial_1_232_0" cx="0.000000" cy="0.000000" r="1.000000" gradientUnits="userSpaceOnUse" gradientTransform="translate(100 128) rotate(71.7606) scale(46.3276 46.3276)">
			<stop stop-color="#E6E799"/>
			<stop offset="1.000000" stop-color="#D3A579"/>
		</radialGradient>
		<radialGradient id="paint_radial_1_233_0" cx="0.000000" cy="0.000000" r="1.000000" gradientUnits="userSpaceOnUse" gradientTransform="translate(101.305 41.3051) rotate(71.7606) scale(10.2078 10.2078)">
			<stop stop-color="#E6E799"/>
			<stop offset="1.000000" stop-color="#D3A579"/>
		</radialGradient>
		<radialGradient id="paint_radial_1_234_0" cx="0.000000" cy="0.000000" r="1.000000" gradientUnits="userSpaceOnUse" gradientTransform="translate(43.3051 80.3051) rotate(71.7606) scale(10.2078 10.2078)">
			<stop stop-color="#E6E799"/>
			<stop offset="1.000000" stop-color="#D3A579"/>
		</radialGradient>
		<radialGradient id="paint_radial_1_236_0" cx="0.000000" cy="0.000000" r="1.000000" gradientUnits="userSpaceOnUse" gradientTransform="translate(44.8305 117.831) rotate(71.7606) scale(14.9191 14.9191)">
			<stop stop-color="#E6E799"/>
			<stop offset="1.000000" stop-color="#D3A579"/>
		</radialGradient>
		<radialGradient id="paint_radial_1_237_0" cx="0.000000" cy="0.000000" r="1.000000" gradientUnits="userSpaceOnUse" gradientTransform="translate(93.5424 79.5424) rotate(71.7606) scale(7.85214 7.85214)">
			<stop stop-color="#E6E799"/>
			<stop offset="1.000000" stop-color="#D3A579"/>
		</radialGradient>
		<radialGradient id="paint_radial_1_238_0" cx="0.000000" cy="0.000000" r="1.000000" gradientUnits="userSpaceOnUse" gradientTransform="translate(107.271 1.27119) rotate(71.7606) scale(3.92607 3.92607)">
			<stop stop-color="#E6E799"/>
			<stop offset="1.000000" stop-color="#D3A579"/>
		</radialGradient>
		<radialGradient id="paint_radial_1_239_0" cx="0.000000" cy="0.000000" r="1.000000" gradientUnits="userSpaceOnUse" gradientTransform="translate(64.2712 50.2712) rotate(71.7606) scale(3.92607 3.92607)">
			<stop stop-color="#E6E799"/>
			<stop offset="1.000000" stop-color="#D3A579"/>
		</radialGradient>
		<radialGradient id="paint_radial_1_240_0" cx="0.000000" cy="0.000000" r="1.000000" gradientUnits="userSpaceOnUse" gradientTransform="translate(1.27119 138.271) rotate(71.7606) scale(3.92606 3.92607)">
			<stop stop-color="#E6E799"/>
			<stop offset="1.000000" stop-color="#D3A579"/>
		</radialGradient>
	</defs>
	<circle id="Ellipse 8" cx="114.500000" cy="142.500000" r="29.500000" fill="url(#paint_radial_1_232_0)" fill-opacity="1.000000"/>
	<circle id="Ellipse 9" cx="104.500000" cy="44.500000" r="6.500000" fill="url(#paint_radial_1_233_0)" fill-opacity="1.000000"/>
	<circle id="Ellipse 12" cx="46.500000" cy="83.500000" r="6.500000" fill="url(#paint_radial_1_234_0)" fill-opacity="1.000000"/>
	<g filter="url(#filter_1_235_dd)">
		<path id="Vector" d="M105.75 61.73C105.58 61.09 105.24 60.5 104.77 60.03C104.3 59.56 103.72 59.22 103.08 59.05C95.38 57.06 87.28 57.27 79.71 59.68C72.13 62.08 65.39 66.57 60.25 72.64L56.07 77.61L46.31 75.25C43.93 74.42 41.34 74.48 39 75.42C36.67 76.35 34.75 78.1 33.61 80.34L25.35 94.96C25.07 95.48 24.9 96.05 24.87 96.64C24.85 97.22 24.96 97.81 25.2 98.35C25.44 98.88 25.81 99.35 26.26 99.72C26.72 100.09 27.26 100.35 27.84 100.47L39.36 102.94C38.38 105.91 37.69 108.97 37.28 112.07C37.2 112.64 37.26 113.22 37.45 113.76C37.63 114.31 37.94 114.8 38.34 115.21L49.97 126.83C50.32 127.18 50.73 127.46 51.19 127.65C51.64 127.83 52.13 127.93 52.62 127.93C52.73 127.93 52.84 127.93 52.95 127.92C56.12 127.63 59.25 127.02 62.29 126.08L64.7 137.34C64.83 137.92 65.08 138.45 65.45 138.91C65.82 139.37 66.3 139.73 66.83 139.98C67.37 140.22 67.95 140.33 68.54 140.3C69.13 140.28 69.7 140.11 70.21 139.82L84.86 131.56C86.92 130.31 88.53 128.44 89.46 126.21C90.38 123.98 90.58 121.52 90.01 119.17L87.51 108.83L92.15 104.56C98.24 99.44 102.75 92.7 105.16 85.12C107.56 77.53 107.77 69.42 105.75 61.73ZM34.39 94.21L40.23 83.86C40.59 83.16 41.21 82.62 41.95 82.36C42.7 82.09 43.52 82.13 44.24 82.45L50.68 84.01L48.24 86.9C45.93 89.67 43.93 92.69 42.28 95.9L34.39 94.21ZM81.15 125.04L70.97 130.78L69.36 123.27C72.62 121.64 75.67 119.6 78.41 117.19L81.2 114.63L82.71 120.87C82.91 121.64 82.86 122.45 82.58 123.2C82.31 123.94 81.81 124.59 81.15 125.04ZM87.21 98.92L73.39 111.62C67.92 116.35 61.18 119.36 54 120.26L44.99 111.24C46.2 104.05 49.3 97.31 53.99 91.72L60.28 84.25C60.39 84.14 60.49 84.02 60.58 83.9L65.96 77.51C69.94 72.81 75.09 69.25 80.89 67.2C86.7 65.14 92.94 64.66 98.99 65.81C100.17 71.88 99.69 78.15 97.62 83.97C95.55 89.8 91.95 94.96 87.21 98.92ZM83.75 75.81C82.63 75.81 81.55 76.14 80.62 76.75C79.7 77.37 78.98 78.25 78.55 79.28C78.12 80.31 78.01 81.44 78.23 82.53C78.45 83.62 78.98 84.62 79.77 85.41C80.56 86.2 81.56 86.73 82.65 86.95C83.74 87.16 84.87 87.05 85.9 86.63C86.93 86.2 87.81 85.48 88.42 84.56C89.04 83.63 89.37 82.54 89.37 81.43C89.37 80.69 89.23 79.96 88.94 79.28C88.66 78.6 88.25 77.98 87.72 77.45C87.2 76.93 86.58 76.52 85.9 76.23C85.22 75.95 84.49 75.81 83.75 75.81Z" fill="#FFFFFF" fill-opacity="1.000000" fill-rule="nonzero"/>
	</g>
	<circle id="Ellipse 13" cx="49.500000" cy="122.500000" r="9.500000" fill="url(#paint_radial_1_236_0)" fill-opacity="1.000000"/>
	<circle id="Ellipse 14" cx="96.000000" cy="82.000000" r="5.000000" fill="url(#paint_radial_1_237_0)" fill-opacity="1.000000"/>
	<circle id="Ellipse 10" cx="108.500000" cy="2.500000" r="2.500000" fill="url(#paint_radial_1_238_0)" fill-opacity="1.000000"/>
	<circle id="Ellipse 15" cx="65.500000" cy="51.500000" r="2.500000" fill="url(#paint_radial_1_239_0)" fill-opacity="1.000000"/>
	<circle id="Ellipse 11" cx="2.500000" cy="139.500000" r="2.500000" fill="url(#paint_radial_1_240_0)" fill-opacity="1.000000"/>
</svg>
