<svg width="144.000000" height="172.000000" viewBox="0 0 144 172" fill="none" xmlns="http://www.w3.org/2000/svg" xmlns:xlink="http://www.w3.org/1999/xlink">
	<desc>
			Created with Pixso.
	</desc>
	<defs>
		<filter id="filter_1_207_dd" x="18.000000" y="54.000000" width="109.000000" height="109.000000" filterUnits="userSpaceOnUse" color-interpolation-filters="sRGB">
			<feFlood flood-opacity="0" result="BackgroundImageFix"/>
			<feColorMatrix in="SourceAlpha" type="matrix" values="0 0 0 0 0 0 0 0 0 0 0 0 0 0 0 0 0 0 127 0" result="hardAlpha"/>
			<feOffset dx="0" dy="4"/>
			<feGaussianBlur stdDeviation="4.66667"/>
			<feComposite in2="hardAlpha" operator="out" k2="-1" k3="1"/>
			<feColorMatrix type="matrix" values="0 0 0 0 0.40784 0 0 0 0 0.16863 0 0 0 0 0.46667 0 0 0 0.25 0"/>
			<feBlend mode="normal" in2="BackgroundImageFix" result="effect_dropShadow_1"/>
			<feBlend mode="normal" in="SourceGraphic" in2="effect_dropShadow_1" result="shape"/>
		</filter>
		<radialGradient id="paint_radial_1_204_0" cx="0.000000" cy="0.000000" r="1.000000" gradientUnits="userSpaceOnUse" gradientTransform="translate(100 128) rotate(71.7606) scale(46.3276 46.3276)">
			<stop stop-color="#E799D6"/>
			<stop offset="1.000000" stop-color="#9179D3"/>
		</radialGradient>
		<radialGradient id="paint_radial_1_205_0" cx="0.000000" cy="0.000000" r="1.000000" gradientUnits="userSpaceOnUse" gradientTransform="translate(101.305 41.3051) rotate(71.7606) scale(10.2078 10.2078)">
			<stop stop-color="#E799D6"/>
			<stop offset="1.000000" stop-color="#9179D3"/>
		</radialGradient>
		<radialGradient id="paint_radial_1_206_0" cx="0.000000" cy="0.000000" r="1.000000" gradientUnits="userSpaceOnUse" gradientTransform="translate(46.3051 82.3051) rotate(71.7606) scale(10.2078 10.2078)">
			<stop stop-color="#E799D6"/>
			<stop offset="1.000000" stop-color="#9179D3"/>
		</radialGradient>
		<radialGradient id="paint_radial_1_208_0" cx="0.000000" cy="0.000000" r="1.000000" gradientUnits="userSpaceOnUse" gradientTransform="translate(44.8305 117.831) rotate(71.7606) scale(14.9191 14.9191)">
			<stop stop-color="#E799D6"/>
			<stop offset="1.000000" stop-color="#9179D3"/>
		</radialGradient>
		<radialGradient id="paint_radial_1_209_0" cx="0.000000" cy="0.000000" r="1.000000" gradientUnits="userSpaceOnUse" gradientTransform="translate(93.5424 79.5424) rotate(71.7606) scale(7.85214 7.85214)">
			<stop stop-color="#E799D6"/>
			<stop offset="1.000000" stop-color="#9179D3"/>
		</radialGradient>
		<radialGradient id="paint_radial_1_210_0" cx="0.000000" cy="0.000000" r="1.000000" gradientUnits="userSpaceOnUse" gradientTransform="translate(107.271 1.27119) rotate(71.7606) scale(3.92607 3.92607)">
			<stop stop-color="#E799D6"/>
			<stop offset="1.000000" stop-color="#9179D3"/>
		</radialGradient>
		<radialGradient id="paint_radial_1_211_0" cx="0.000000" cy="0.000000" r="1.000000" gradientUnits="userSpaceOnUse" gradientTransform="translate(64.2712 50.2712) rotate(71.7606) scale(3.92607 3.92607)">
			<stop stop-color="#E799D6"/>
			<stop offset="1.000000" stop-color="#9179D3"/>
		</radialGradient>
		<radialGradient id="paint_radial_1_212_0" cx="0.000000" cy="0.000000" r="1.000000" gradientUnits="userSpaceOnUse" gradientTransform="translate(1.27119 138.271) rotate(71.7606) scale(3.92606 3.92607)">
			<stop stop-color="#E799D6"/>
			<stop offset="1.000000" stop-color="#9179D3"/>
		</radialGradient>
	</defs>
	<circle id="Ellipse 8" cx="114.500000" cy="142.500000" r="29.500000" fill="url(#paint_radial_1_204_0)" fill-opacity="1.000000"/>
	<circle id="Ellipse 9" cx="104.500000" cy="44.500000" r="6.500000" fill="url(#paint_radial_1_205_0)" fill-opacity="1.000000"/>
	<circle id="Ellipse 12" cx="49.500000" cy="85.500000" r="6.500000" fill="url(#paint_radial_1_206_0)" fill-opacity="1.000000"/>
	<g filter="url(#filter_1_207_dd)">
		<path id="Vector" d="M107.21 104.5C103.68 104.5 102.01 106.98 101.42 109.6C99.31 119.05 90.34 133.42 72.5 133.42C56.52 133.42 43.57 120.47 43.57 104.5C43.57 88.52 56.52 75.57 72.5 75.57C78.98 75.57 84.92 77.74 89.74 81.35L84.07 81.35C80.87 81.35 78.28 83.94 78.28 87.14C78.28 90.33 80.87 92.92 84.07 92.92L101.42 92.92C104.62 92.92 107.21 90.33 107.21 87.14L107.21 69.78C107.21 66.59 104.62 64 101.42 64C98.23 64 95.64 66.59 95.64 69.78L95.64 71.28C89.08 66.69 81.11 64 72.5 64C50.13 64 32 82.13 32 104.5C32 126.86 50.13 145 72.5 145C101.36 145 113 117.51 113 110.64C113 106.44 109.92 104.5 107.21 104.5Z" fill="#FFFFFF" fill-opacity="1.000000" fill-rule="nonzero"/>
	</g>
	<circle id="Ellipse 13" cx="49.500000" cy="122.500000" r="9.500000" fill="url(#paint_radial_1_208_0)" fill-opacity="1.000000"/>
	<circle id="Ellipse 14" cx="96.000000" cy="82.000000" r="5.000000" fill="url(#paint_radial_1_209_0)" fill-opacity="1.000000"/>
	<circle id="Ellipse 10" cx="108.500000" cy="2.500000" r="2.500000" fill="url(#paint_radial_1_210_0)" fill-opacity="1.000000"/>
	<circle id="Ellipse 15" cx="65.500000" cy="51.500000" r="2.500000" fill="url(#paint_radial_1_211_0)" fill-opacity="1.000000"/>
	<circle id="Ellipse 11" cx="2.500000" cy="139.500000" r="2.500000" fill="url(#paint_radial_1_212_0)" fill-opacity="1.000000"/>
</svg>
