<svg width="13.000000" height="13.000000" viewBox="0 0 13 13" fill="none" xmlns="http://www.w3.org/2000/svg" xmlns:xlink="http://www.w3.org/1999/xlink">

	<defs/>
	<path id="Star 1" d="M5.74 0.5C5.97 -0.17 6.93 -0.17 7.17 0.5L8.23 3.57C8.33 3.87 8.61 4.07 8.93 4.08L12.17 4.14C12.89 4.15 13.18 5.06 12.61 5.5L10.02 7.45C9.77 7.64 9.66 7.97 9.75 8.27L10.7 11.38C10.91 12.06 10.13 12.63 9.54 12.22L6.89 10.36C6.63 10.18 6.28 10.18 6.02 10.36L3.36 12.22C2.77 12.63 2 12.06 2.21 11.38L3.15 8.27C3.25 7.97 3.14 7.64 2.89 7.45L0.3 5.5C-0.28 5.06 0.02 4.15 0.74 4.14L3.98 4.08C4.3 4.07 4.58 3.87 4.68 3.57L5.74 0.5Z" fill="#FFFFFF" fill-opacity="1.000000" fill-rule="nonzero"/>
</svg>
