<svg width="0" height="0" class="hidden">
  <symbol fill="none" xmlns="http://www.w3.org/2000/svg" xmlns:xlink="http://www.w3.org/1999/xlink" viewBox="0 0 15 20" id="slider-arrow">
    <path id="Vector 6 (Stroke)" d="M4.99 9.25L-0.35 3.91L4.29 -0.73L14.28 9.25L4.29 19.24L-0.35 14.59L4.99 9.25Z" fill="currentColor" fill-opacity="1.000000" fill-rule="evenodd"></path>
  </symbol>
  <symbol fill="none" xmlns="http://www.w3.org/2000/svg" xmlns:xlink="http://www.w3.org/1999/xlink" viewBox="0 0 12 12" id="tab-icon-2">
    <defs>
      <clipPath id="clip1_3042">
        <rect id="9042899_percentage_square_icon 1" width="12.000000" height="12.000000" fill="white" fill-opacity="0"></rect>
      </clipPath>
    </defs>
    <rect id="9042899_percentage_square_icon 1" width="12.000000" height="12.000000" fill="currentColor" fill-opacity="0"></rect>
    <g clip-path="url(#clip1_3042)">
      <path id="Vector" d="M1.5 1.8C1.5 1.63 1.63 1.5 1.8 1.5L10.2 1.5C10.36 1.5 10.5 1.63 10.5 1.8L10.5 10.2C10.5 10.36 10.36 10.5 10.2 10.5L1.8 10.5C1.63 10.5 1.5 10.36 1.5 10.2L1.5 1.8Z" stroke="currentColor" stroke-opacity="1.000000" stroke-width="1.500000"></path>
      <path id="Vector" d="M7.75 8C7.88 8 8 7.88 8 7.75C8 7.61 7.88 7.5 7.75 7.5C7.61 7.5 7.5 7.61 7.5 7.75C7.5 7.88 7.61 8 7.75 8Z" fill="currentColor" fill-opacity="1.000000" fill-rule="nonzero"></path>
      <path id="Vector" d="M8 7.75C8 7.61 7.88 7.5 7.75 7.5C7.61 7.5 7.5 7.61 7.5 7.75C7.5 7.88 7.61 8 7.75 8C7.88 8 8 7.88 8 7.75Z" stroke="currentColor" stroke-opacity="1.000000" stroke-width="1.500000" stroke-linejoin="round"></path>
      <path id="Vector" d="M4.25 4.5C4.38 4.5 4.5 4.38 4.5 4.25C4.5 4.11 4.38 4 4.25 4C4.11 4 4 4.11 4 4.25C4 4.38 4.11 4.5 4.25 4.5Z" fill="currentColor" fill-opacity="1.000000" fill-rule="nonzero"></path>
      <path id="Vector" d="M4.5 4.25C4.5 4.11 4.38 4 4.25 4C4.11 4 4 4.11 4 4.25C4 4.38 4.11 4.5 4.25 4.5C4.38 4.5 4.5 4.38 4.5 4.25Z" stroke="currentColor" stroke-opacity="1.000000" stroke-width="1.500000" stroke-linejoin="round"></path>
      <path id="Vector" d="M8 4L4 " stroke="currentColor" stroke-opacity="1.000000" stroke-width="1.500000" stroke-linejoin="round" stroke-linecap="round"></path>
    </g>
  </symbol>
  <symbol fill="none" xmlns="http://www.w3.org/2000/svg" xmlns:xlink="http://www.w3.org/1999/xlink" viewBox="0 0 12 12" id="tab-icon-3">
    <defs>
      <clipPath id="clip1_3050">
        <rect id="2638348_banking_card_credit_debit_e-commerce_icon 1" width="12.000000" height="12.000000" fill="white" fill-opacity="0"></rect>
      </clipPath>
    </defs>
    <rect id="2638348_banking_card_credit_debit_e-commerce_icon 1" width="12.000000" height="12.000000" fill="currentColor" fill-opacity="0"></rect>
    <g clip-path="url(#clip1_3050)">
      <path id="Vector" d="M10.5 1.5L1.5 1.5C0.64 1.5 0 2 0 3L1 3C1 2.5 1.19 2.5 1.5 2.5L10.5 2.5C10.8 2.5 11 2.69 11 3L11 9C11 9.3 10.8 9.5 10.5 9.5L1.5 9.5C1.19 9.5 1 9.25 1 9L1 5L10 5L10 4L0 4L0 9C0 9.84 0.64 10.5 1.5 10.5L10.5 10.5C11.35 10.5 12 9.84 12 9L12 3C12 2.15 11.35 1.5 10.5 1.5Z" fill="currentColor" fill-opacity="1.000000" fill-rule="nonzero"></path>
    </g>
  </symbol>
  <symbol fill="none" xmlns="http://www.w3.org/2000/svg" xmlns:xlink="http://www.w3.org/1999/xlink" viewBox="0 0 12 12" id="tab-icon-4">
    <defs>
      <clipPath id="clip1_3055">
        <rect id="9004683_clock_time_date_event_icon 1" width="12.000000" height="12.000000" fill="white" fill-opacity="0"></rect>
      </clipPath>
    </defs>
    <rect id="9004683_clock_time_date_event_icon 1" width="12.000000" height="12.000000" fill="currentColor" fill-opacity="0"></rect>
    <g clip-path="url(#clip1_3055)">
      <path id="Vector" d="M6 0C4.81 0 3.65 0.35 2.66 1.01C1.67 1.67 0.91 2.6 0.45 3.7C0 4.8 -0.12 6 0.11 7.17C0.34 8.33 0.91 9.4 1.75 10.24C2.59 11.08 3.66 11.65 4.82 11.88C5.99 12.11 7.19 11.99 8.29 11.54C9.39 11.08 10.32 10.32 10.98 9.33C11.64 8.34 12 7.18 12 6C11.99 4.4 11.36 2.88 10.24 1.75C9.11 0.63 7.59 0 6 0ZM6 11C5.01 11 4.04 10.7 3.22 10.15C2.39 9.6 1.75 8.82 1.38 7.91C1 6.99 0.9 5.99 1.09 5.02C1.28 4.05 1.76 3.16 2.46 2.46C3.16 1.76 4.05 1.28 5.02 1.09C5.99 0.9 6.99 1 7.91 1.38C8.82 1.75 9.6 2.39 10.15 3.22C10.7 4.04 11 5.01 11 6C10.99 7.32 10.47 8.59 9.53 9.53C8.59 10.47 7.32 10.99 6 11Z" fill="currentColor" fill-opacity="1.000000" fill-rule="nonzero"></path>
      <path id="Vector" d="M6.5 5.79L6.5 3C6.5 2.86 6.44 2.74 6.35 2.64C6.25 2.55 6.13 2.5 6 2.5C5.86 2.5 5.74 2.55 5.64 2.64C5.55 2.74 5.5 2.86 5.5 3L5.5 6C5.5 6.13 5.55 6.25 5.64 6.35L7.14 7.85C7.24 7.94 7.36 7.99 7.49 7.99C7.62 7.99 7.75 7.94 7.84 7.84C7.94 7.75 7.99 7.62 7.99 7.49C7.99 7.36 7.94 7.24 7.85 7.14L6.5 5.79Z" fill="currentColor" fill-opacity="1.000000" fill-rule="nonzero"></path>
    </g>
  </symbol>
  <symbol fill="none" xmlns="http://www.w3.org/2000/svg" xmlns:xlink="http://www.w3.org/1999/xlink" viewBox="0 0 12 12" id="tab-icon-1">
    <defs></defs>
    <rect id="Rectangle 11" x="6.666504" width="5.333275" height="5.333275" fill="currentColor" fill-opacity="1.000000"></rect>
    <rect id="Rectangle 10" width="5.333275" height="5.333275" fill="currentColor" fill-opacity="1.000000"></rect>
    <rect id="Rectangle 12" y="6.666748" width="5.333275" height="5.333275" fill="currentColor" fill-opacity="1.000000"></rect>
    <rect id="Rectangle 13" x="6.666504" y="6.666748" width="5.333275" height="5.333275" fill="currentColor" fill-opacity="1.000000"></rect>
  </symbol>
</svg>

 